<?xml version="1.0" encoding="utf-8"?>
<!-- Generator: Adobe Illustrator 23.0.1, SVG Export Plug-In . SVG Version: 6.00 Build 0)  -->
<svg version="1.1" id="Layer_1" xmlns="http://www.w3.org/2000/svg" xmlns:xlink="http://www.w3.org/1999/xlink" x="0px" y="0px"
	 viewBox="0 0 80 80" style="enable-background:new 0 0 80 80;" xml:space="preserve">
<style type="text/css">
	.st0{fill:#EA5F5F;}
	.st1{fill:#FFFFFF;}
</style>
<circle class="st0" cx="40" cy="40" r="35"/>
<path class="st1" d="M58.9,50.7L45.5,15H28.8v7.6h3.7l-10.8,28h-4.2v7.8h16.9v-6.7c-0.9-0.2-1.7-0.4-2.5-0.8L31.7,51v-5.9l0.8,0.6
	c0.9,0.7,2,1.2,3.1,1.5c1.1,0.3,2.2,0.5,3.4,0.5c0.7,0,1.2,0,1.7-0.1c0.5-0.1,0.9-0.2,1.2-0.4c0.3-0.1,0.5-0.3,0.6-0.5
	c0.1-0.2,0.2-0.4,0.2-0.6c0-0.3-0.1-0.5-0.3-0.8c-0.2-0.3-0.6-0.5-1-0.8c-0.4-0.3-1-0.5-1.6-0.8c-0.6-0.3-1.3-0.5-2.1-0.8
	c-2-0.7-3.5-1.6-4.5-2.6c-1-1.1-1.5-2.4-1.5-3.9c0-1.2,0.3-2.2,0.9-3.1c0.6-0.8,1.3-1.5,2.3-2.1c0.9-0.5,2-0.9,3.2-1.2
	c2.3-0.5,5.2-0.4,7.2-0.2c1,0.1,2,0.3,2.8,0.6l0.3,0.1v5.6l-0.8-0.4c-0.4-0.2-0.8-0.4-1.3-0.6c-0.5-0.2-0.9-0.3-1.4-0.4
	c-0.5-0.1-1-0.2-1.5-0.3c-1.1-0.1-2.2-0.1-3,0.1c-0.5,0.1-0.9,0.2-1.2,0.4c-0.3,0.1-0.5,0.3-0.7,0.5c-0.1,0.2-0.2,0.4-0.2,0.6
	c0,0.2,0.1,0.4,0.2,0.6c0.2,0.2,0.4,0.5,0.8,0.7c0.4,0.2,0.8,0.5,1.4,0.7c0.6,0.2,1.2,0.5,1.9,0.7c1,0.4,1.9,0.7,2.7,1.1
	c0.8,0.4,1.5,0.9,2.1,1.4c0.6,0.5,1.1,1.2,1.4,1.9c0.3,0.7,0.5,1.5,0.5,2.4c0,1.3-0.3,2.3-0.9,3.2c-0.3,0.4-0.6,0.8-0.9,1.1l0,0l0,0
	c-0.4,0.4-0.8,0.7-1.3,1c-0.4,0.2-0.9,0.4-1.4,0.6v7H63v-7.8H58.9z"/>
</svg>
